<svg xmlns="http://www.w3.org/2000/svg" width="800" height="800" viewBox="0 0 800 800" version="1.1">
	<path d="M 366.994 124.874 C 356.172 128.425, 348.352 138.136, 344.574 152.716 C 339.763 171.280, 345.831 186.642, 361.144 194.666 C 365.790 197.100, 367.627 197.472, 375 197.474 C 384.336 197.476, 387.744 196.213, 397.409 189.173 C 401.653 186.081, 403.028 185.613, 407.560 185.719 C 416.859 185.937, 439.356 194.955, 469 210.349 C 509.830 231.552, 534.921 253.531, 558.172 288.462 C 568.909 304.592, 578.627 322.923, 577.709 325.315 C 577.109 326.880, 572.727 327.751, 551.500 330.526 C 544.900 331.389, 531.625 333.395, 522 334.983 C 512.375 336.571, 502.025 338.146, 499 338.482 L 493.500 339.093 490.192 333.369 C 487.341 328.435, 487.099 327.524, 488.442 326.773 C 490.261 325.754, 490.421 322.060, 488.943 315.169 L 487.886 310.239 481.357 310.764 L 474.828 311.288 466.164 302.754 C 456.680 293.413, 440.767 281.198, 440.221 282.838 C 440.031 283.406, 440.781 286.937, 441.887 290.685 C 451.009 321.611, 453.099 362.027, 447.435 398 C 444.551 416.316, 437.757 435.792, 426.595 457.735 C 401.427 507.210, 364.961 547.873, 329.190 566.348 C 324.236 568.906, 319.025 571, 317.611 571 C 314.272 571, 296.585 563.975, 287 558.841 C 257.782 543.194, 230.129 512.121, 213.038 475.731 C 199.311 446.506, 191.465 415.992, 188.953 382.064 C 186.775 352.649, 191.855 317.142, 203.601 279.677 C 205.493 273.644, 206.821 268.488, 206.553 268.220 C 205.044 266.710, 182.430 282.672, 171.091 293.250 C 167.702 296.413, 164.157 298.980, 163.214 298.956 C 162.271 298.932, 159.700 298.264, 157.500 297.471 C 155.300 296.679, 153.196 296.023, 152.825 296.015 C 151.828 295.993, 146 307.083, 146 309.003 C 146 309.910, 147.088 311.674, 148.418 312.923 L 150.836 315.194 144.813 324.347 C 141.500 329.381, 136.583 337.887, 133.886 343.250 L 128.982 353 123.741 353.009 L 118.500 353.019 116.234 360.481 L 113.968 367.944 117.542 371.222 L 121.116 374.500 118.586 387 C 117.194 393.875, 115.749 402.814, 115.374 406.865 L 114.691 414.230 119.846 413.521 L 125 412.812 125 420.406 C 125 424.583, 124.662 427.980, 124.250 427.956 C 123.838 427.932, 121.578 427.541, 119.228 427.087 C 116.879 426.632, 114.798 426.540, 114.605 426.880 C 113.920 428.085, 115.973 450.502, 117.527 458.796 C 118.906 466.156, 118.921 467.347, 117.644 468.352 C 116.458 469.285, 116.354 470.689, 117.091 475.844 C 118.180 483.462, 118.466 484, 121.423 484 C 123.260 484, 124.084 484.964, 125.481 488.750 C 128.774 497.673, 137.311 515, 138.406 514.984 C 139.362 514.971, 145.551 510.326, 160.748 498.219 L 164.867 494.937 168.488 501.114 C 170.479 504.512, 171.746 507.613, 171.304 508.005 C 170.862 508.398, 164.200 511.311, 156.500 514.479 C 148.800 517.646, 142.163 520.435, 141.752 520.677 C 140.894 521.180, 147.282 530.913, 153.778 539 C 158.920 545.402, 175.931 563, 176.977 563 C 177.369 563, 178.547 563.949, 179.595 565.108 C 184.666 570.720, 210.824 586.351, 222.211 590.573 C 230.380 593.603, 230.670 593.572, 231.417 589.592 C 231.787 587.616, 232.513 586, 233.030 586 C 233.547 586, 236.246 587.400, 239.027 589.112 C 243.966 592.151, 244.048 592.278, 242.533 594.590 C 241.044 596.863, 241.092 596.981, 243.741 597.562 C 245.258 597.895, 247.172 598.382, 247.994 598.646 C 248.815 598.909, 256.690 600.212, 265.494 601.542 C 274.297 602.871, 285.325 604.676, 290 605.552 C 308.154 608.954, 354.320 607.951, 371.849 603.774 L 377.197 602.500 373.058 597.305 L 368.918 592.111 374.209 588.690 C 377.119 586.809, 379.786 585.429, 380.136 585.624 C 380.486 585.818, 381.807 588.908, 383.071 592.489 C 384.335 596.070, 385.624 599, 385.935 598.999 C 389.016 598.997, 409.377 588.915, 420.703 581.785 C 425.788 578.584, 427.264 578.071, 428.888 578.940 C 431.831 580.515, 432.286 580.361, 437.934 575.863 C 442.884 571.922, 443.100 571.553, 442.507 568.044 C 441.929 564.623, 442.215 564.057, 446.517 560.091 C 453.400 553.747, 460.166 551.045, 472.243 549.817 C 486.094 548.409, 520.633 549.364, 535.404 551.564 C 545.253 553.031, 548.283 553.135, 552.964 552.168 C 556.075 551.526, 561.743 550.986, 565.560 550.969 C 569.377 550.951, 577.450 550.038, 583.500 548.939 C 605.130 545.009, 616.607 543.157, 623.583 542.471 L 630.665 541.775 631.887 550.637 C 634.049 566.327, 644.784 605.560, 653.466 629.500 C 663.149 656.199, 678.105 673.102, 695.495 676.999 C 701.935 678.442, 707.119 676.847, 712.754 671.687 C 719.113 665.865, 724.546 657.096, 727.691 647.578 C 730.013 640.551, 730.368 637.808, 730.418 626.500 C 730.463 616.549, 730.031 611.975, 728.578 607 C 724.386 592.646, 717.739 583.088, 703.892 571.500 C 671.814 544.656, 666.546 534.729, 656.471 482.136 C 641.549 404.247, 625.453 346.771, 609.866 315.720 C 597.900 291.883, 568.882 251.714, 550.390 233.387 C 526.570 209.781, 493.246 190.387, 432.091 164.538 C 413.971 156.879, 410.124 154.220, 405.399 146.091 C 400.064 136.911, 392.985 129.670, 386.702 126.967 C 381.158 124.582, 371.130 123.517, 366.994 124.874 M 369.328 137.099 C 364.233 138.573, 353.788 146.149, 350.662 150.637 C 347.576 155.067, 346.310 161.508, 347.392 167.275 C 348.912 175.377, 363.190 185.532, 372.979 185.473 C 383.107 185.412, 396.213 178.439, 400.151 171.016 C 402.426 166.727, 402.505 161.064, 400.389 153.939 C 396.759 141.716, 381.660 133.529, 369.328 137.099 M 408.390 168.427 C 408.088 169.212, 407.990 170.900, 408.171 172.177 C 408.446 174.116, 409.741 174.883, 416 176.813 C 442.196 184.892, 482.782 205.198, 504 220.841 C 514.016 228.225, 544.846 259.172, 553.818 270.849 C 572.223 294.802, 586.876 323.980, 595.409 353.666 C 597.332 360.358, 600.979 375.883, 603.513 388.166 C 606.048 400.450, 610.164 418.895, 612.660 429.156 C 616.751 445.969, 617.066 448.092, 615.850 450.656 C 613.909 454.746, 607.737 457.450, 592.138 461.043 C 552.487 470.176, 546.761 472.187, 539.378 479.570 C 535.798 483.149, 534.871 483.626, 533.479 482.608 C 531.996 481.524, 532.259 480.852, 536.030 476.081 C 540.748 470.112, 540.744 470.102, 532.500 467.376 C 524.913 464.868, 518.823 461.526, 515.543 458.072 L 512.585 454.958 510.739 459.658 L 508.892 464.359 512.402 467.868 L 515.911 471.377 512.331 478.189 L 508.752 485 504.021 485 L 499.290 485 495.260 493.750 C 493.043 498.563, 489.291 506.887, 486.922 512.250 C 484.552 517.612, 482.302 522, 481.920 522 C 481.538 522, 476.947 517.950, 471.716 513 C 466.486 508.050, 461.823 504.005, 461.353 504.012 C 460.525 504.023, 453 514.268, 453 515.384 C 453 515.690, 458.646 518.731, 465.547 522.141 C 472.447 525.551, 478.316 528.702, 478.587 529.142 C 478.859 529.581, 478.388 531.282, 477.541 532.921 C 476.693 534.560, 476 536.207, 476 536.582 C 476 536.956, 479.488 537.027, 483.750 536.738 C 491.012 536.246, 491.846 536.405, 497 539.264 L 502.500 542.316 499.563 539.158 L 496.626 536 500.063 536.010 C 501.953 536.015, 509.350 536.682, 516.500 537.490 C 523.650 538.299, 531.417 538.970, 533.760 538.980 L 538.020 539 534.475 533.660 C 529.176 525.679, 526.835 518.652, 526.259 509 C 525.691 499.463, 527.365 489.181, 529.627 488.313 C 532.029 487.391, 532.216 488.535, 530.568 494.083 C 525.832 510.030, 532.876 524.436, 549.342 532.477 C 563.261 539.275, 578.775 539.516, 608.787 533.401 C 618.295 531.464, 627.518 530.019, 629.283 530.189 C 632.299 530.481, 632.540 530.800, 633.291 535.500 C 635.104 546.841, 638.559 560.653, 644.547 580.500 C 659 628.402, 666.183 642.680, 680.635 652.230 C 688.469 657.407, 699.248 663, 701.391 663 C 704.321 663, 713.905 652.939, 716.947 646.672 C 723.107 633.978, 723.437 611.792, 717.597 602.967 C 716.263 600.952, 710.521 595.072, 704.836 589.902 C 667.387 555.839, 662.730 547.517, 654.057 499.157 C 648.008 465.429, 638.585 421.304, 631.386 393 C 616.362 333.926, 590.190 286.085, 552.043 247.969 C 537.397 233.334, 525.251 223.490, 510.500 214.299 C 484.988 198.404, 418.930 167, 411.006 167 C 409.868 167, 408.691 167.642, 408.390 168.427 M 280 257.519 C 266.612 259.369, 257.493 261.600, 242.627 266.664 C 232.605 270.078, 220.604 275.474, 216.215 278.538 C 216.058 278.647, 216.867 281.242, 218.012 284.303 L 220.095 289.869 217.172 295.685 C 200.300 329.258, 196.124 382.547, 206.646 430 C 214.733 466.473, 231.746 501.494, 253.320 526.077 C 262.355 536.372, 274.360 546.711, 286.260 554.446 C 295.088 560.183, 310.641 568.014, 313.147 567.983 C 313.891 567.974, 318.191 565.985, 322.703 563.562 C 392.699 525.979, 439.083 445.792, 438.982 362.542 C 438.951 337.183, 433.607 308.695, 427.649 302.132 C 424.373 298.523, 410.911 288.467, 401.744 282.781 C 392.755 277.206, 370.966 266.510, 367 265.726 C 365.625 265.454, 360.140 264.038, 354.811 262.580 C 343.768 259.557, 330.136 257.003, 325.038 257.001 C 322.632 257, 320.953 257.724, 319.538 259.372 C 316.737 262.633, 309.797 262.045, 308.139 258.406 C 307.097 256.118, 306.613 256.005, 298.271 256.103 C 293.447 256.160, 285.225 256.797, 280 257.519 M 570.500 338.657 C 558.583 340.075, 542.452 342.527, 531 344.660 C 523.575 346.043, 513.556 347.517, 508.735 347.936 C 503.914 348.354, 499.742 348.924, 499.464 349.203 C 499.185 349.482, 499.931 352.255, 501.122 355.366 C 503.133 360.622, 503.555 361.065, 507.086 361.630 C 510.848 362.231, 510.893 362.293, 511.580 367.795 C 512.008 371.220, 511.838 374.559, 511.137 376.497 C 509.727 380.398, 509.714 382.567, 511.064 388.861 L 512.127 393.821 532.314 394.161 C 549.341 394.447, 552.688 394.265, 553.699 393 C 554.358 392.175, 556.948 385.200, 559.453 377.500 C 567.123 353.930, 567.985 356.335, 561.003 381.823 L 557.257 395.500 559.896 397.201 C 561.347 398.136, 566.054 400.506, 570.357 402.466 C 578.025 405.961, 578.190 405.989, 578.733 403.913 C 579.202 402.119, 579.489 402.383, 580.607 405.632 C 581.332 407.744, 583.180 410.357, 584.713 411.439 C 586.246 412.522, 591.131 416.916, 595.568 421.204 C 600.006 425.492, 604.005 429, 604.456 429 C 607.497 429, 597.279 378.188, 588.822 351.250 L 584.662 338 579.081 338.150 C 576.011 338.232, 572.150 338.460, 570.500 338.657 M 540.162 356.543 C 538.776 359.586, 538.685 361, 539.875 361 C 540.733 361, 542.346 355.012, 541.669 354.336 C 541.480 354.147, 540.802 355.140, 540.162 356.543 M 577.195 364.500 C 577.215 366.150, 577.439 366.704, 577.693 365.731 C 577.947 364.758, 577.930 363.408, 577.656 362.731 C 577.382 362.054, 577.175 362.850, 577.195 364.500 M 534.561 373.250 C 530.690 386.253, 530.598 386.669, 531.828 385.500 C 532.896 384.485, 539 367.126, 539 365.102 C 539 364.496, 538.621 364, 538.158 364 C 537.694 364, 536.076 368.163, 534.561 373.250 M 550.165 365.301 C 549.471 366.137, 548.697 368.549, 548.445 370.661 L 547.987 374.500 550.057 370.191 C 552.252 365.623, 552.316 362.709, 550.165 365.301 M 573.121 379.338 C 570.568 387.907, 569.218 396.536, 570.827 394 C 572.235 391.781, 576.194 375.239, 575.798 373.231 C 575.610 372.279, 574.406 375.027, 573.121 379.338 M 326.020 376.284 C 320.387 379.135, 319.284 387.438, 323.923 392.077 C 328.582 396.736, 334.918 395.525, 337.438 389.493 C 339.731 384.006, 338.093 378.707, 333.316 376.163 C 330.554 374.692, 329.119 374.716, 326.020 376.284 M 514 406.628 C 514 407.982, 513.286 408.142, 509.750 407.580 C 507.413 407.208, 504.488 406.652, 503.250 406.344 C 501.062 405.799, 501 405.998, 501 413.508 L 501 421.233 507.368 420.551 C 512.405 420.012, 513.850 420.165, 514.280 421.287 C 514.579 422.067, 514.462 428.284, 514.020 435.103 C 513.124 448.901, 513.162 449.022, 519.407 452.208 C 530.019 457.621, 545.492 460.383, 557.084 458.932 C 576.843 456.459, 607 450.336, 607 448.797 C 607 447.165, 589.441 429.569, 581 422.741 C 567.843 412.099, 555.203 407.729, 532.596 406.004 C 514.870 404.652, 514 404.681, 514 406.628 M 569.809 484.109 C 563.746 485.024, 559.599 487.528, 556.329 492.247 C 548.309 503.820, 556.369 523.063, 569.200 522.978 C 579.261 522.911, 590.034 511.463, 589.990 500.884 C 589.977 497.716, 585.810 488.968, 583.215 486.661 C 580.436 484.191, 575.495 483.250, 569.809 484.109 M 562.015 494.919 C 560.648 495.284, 558.863 496.772, 558.048 498.224 C 554.897 503.838, 561.597 511, 570 511 C 576.666 511, 583.443 506.158, 582.830 501.832 C 582.220 497.522, 568.870 493.088, 562.015 494.919" stroke="none" fill="black" fill-rule="evenodd"/>
</svg>