<svg xmlns="http://www.w3.org/2000/svg" width="800" height="800" viewBox="0 0 800 800" version="1.1">
	<path d="M 347.124 236.581 C 189.067 251.617, 59.508 264.159, 59.215 264.452 C 58.666 265.001, 107.617 588.950, 108.362 589.695 C 108.846 590.179, 686.303 568.031, 686.825 567.508 C 687.266 567.068, 729.876 362.402, 730.236 359 C 730.475 356.738, 729.964 356.364, 724.866 355.074 C 719.416 353.694, 718.982 353.739, 711.523 356.459 C 707.283 358.006, 697.609 362.340, 690.026 366.092 C 678.257 371.913, 675.503 373.737, 671.214 378.549 L 666.190 384.186 655.772 375.743 C 650.042 371.100, 643.136 366.445, 640.427 365.400 C 634.094 362.958, 622.791 362.880, 618.374 365.248 L 615.247 366.923 614.612 362.135 C 612.742 348.036, 596.143 325.122, 582.604 317.949 C 579.309 316.203, 578.166 315.069, 578.627 314 C 583.282 303.186, 584.748 285.391, 581.660 277.171 L 580.033 272.843 582.914 270.419 C 590.273 264.227, 596.903 248.283, 597.288 235.852 C 597.405 232.094, 597.685 229.015, 597.912 229.010 C 598.139 229.004, 600.706 229.751, 603.616 230.668 L 608.908 232.336 612.936 228.185 C 615.408 225.638, 621.123 221.919, 627.732 218.557 C 633.654 215.544, 639.625 212.172, 641 211.062 L 643.500 209.044 639 209.144 C 636.525 209.199, 505.181 221.545, 347.124 236.581 M 672.120 214.030 C 668.815 216.800, 664.097 218.318, 654.963 219.551 C 650.813 220.111, 650.307 219.943, 649.044 217.582 C 648.284 216.162, 647.247 215, 646.739 215 C 646.232 215, 643.719 216.872, 641.156 219.160 C 638.593 221.447, 631.355 226.060, 625.072 229.410 C 615.195 234.675, 613.499 235.949, 612.546 238.818 L 611.444 242.137 608.814 240.068 C 607.368 238.931, 605.918 238, 605.592 238 C 605.267 238, 605 239.982, 605 242.404 C 605 245.700, 603.856 248.977, 600.453 255.429 C 594.314 267.066, 591.968 276.631, 592.118 289.410 C 592.265 301.938, 592.930 305.157, 595.652 306.514 C 597.757 307.563, 597.744 307.610, 594.863 309.264 L 591.932 310.946 602.096 326.223 C 612.375 341.673, 615.674 346, 617.174 346 C 617.628 346, 618.900 345.100, 620 344 L 622 342 621.994 344.250 C 621.991 345.488, 621.551 349.172, 621.016 352.438 C 620.481 355.705, 620.199 358.532, 620.389 358.722 C 620.579 358.912, 623.010 357.269, 625.791 355.071 L 630.847 351.075 632.783 354.357 C 635.289 358.605, 639.430 360.476, 650.500 362.366 C 658.300 363.697, 659.867 364.310, 662.250 366.967 C 663.763 368.652, 665 370.898, 665 371.957 C 665 374.660, 666.729 375.428, 667.481 373.058 C 668.542 369.716, 674.024 365.921, 685.767 360.399 C 691.964 357.485, 699.727 353.439, 703.018 351.408 C 708.678 347.914, 709.324 347.749, 715 348.342 C 718.300 348.687, 721 348.696, 721 348.361 C 721 348.027, 718.950 344.376, 716.443 340.248 C 713.211 334.924, 712.412 332.959, 713.693 333.489 C 714.687 333.899, 718.124 335.052, 721.331 336.050 C 726.710 337.725, 727.107 337.735, 726.448 336.183 C 726.056 335.257, 725.517 330.872, 725.252 326.437 C 724.843 319.613, 725.090 317.743, 726.862 314.271 C 728.994 310.092, 732.703 306.824, 737.298 305.077 L 739.857 304.104 735.802 294.915 C 728.926 279.332, 729.439 270.581, 737.593 264.361 L 741.188 261.619 735.268 259.998 C 726.975 257.728, 722.512 254.688, 720.071 249.647 C 717.676 244.699, 717.434 238.618, 719.340 231.268 C 720.661 226.176, 720.651 226.117, 718.621 227.203 C 717.489 227.809, 714.793 229.586, 712.631 231.152 C 707.722 234.708, 706.674 234.702, 702.109 231.086 C 698.293 228.064, 694.777 226.326, 686.837 223.538 C 681.444 221.645, 677.301 217.897, 676.241 213.953 L 675.500 211.197 672.120 214.030 M 666.461 230.341 C 664.789 231.528, 662.341 233.277, 661.021 234.227 C 658.032 236.378, 658.863 237.475, 662.297 235.911 C 665.994 234.226, 669.172 235.449, 671.822 239.575 C 673.098 241.563, 674.333 243.001, 674.565 242.769 C 675.042 242.292, 671.072 229.856, 670.119 228.841 C 669.779 228.479, 668.132 229.154, 666.461 230.341 M 637.265 230.542 C 630.829 232.275, 623.343 235.999, 619.074 239.591 C 614.898 243.105, 606.146 256.110, 603.797 262.293 C 592.633 291.674, 621.038 337.709, 653.500 342.846 C 656.800 343.368, 659.658 343.646, 659.851 343.463 C 660.045 343.280, 658.360 338.419, 656.109 332.660 C 645.736 306.129, 642.720 278.321, 647.503 253.318 C 648.696 247.084, 652.050 234.639, 653.687 230.372 C 654.400 228.515, 644.409 228.617, 637.265 230.542 M 631.607 240.250 C 625.212 243.719, 615.640 252.714, 612.594 258.118 L 610.687 261.500 613.094 259.417 C 627.954 246.555, 638 237.659, 638 237.363 C 638 236.796, 637.849 236.864, 631.607 240.250 M 702 253.500 L 695.500 256.903 700.139 256.951 C 706.580 257.019, 708.897 259.159, 709.666 265.750 C 710.070 269.211, 710.742 271, 711.639 271 C 713.261 271, 713.283 270.414, 711.973 262 C 710.478 252.396, 709.915 249.995, 709.171 250.049 C 708.802 250.075, 705.575 251.628, 702 253.500 M 619.146 266.058 C 613.140 269.710, 610.422 280.001, 613.101 288.942 C 614.799 294.609, 617.062 297.072, 619.886 296.326 C 622.204 295.714, 622.257 295.477, 621.703 288.098 C 621.389 283.919, 621.541 276.925, 622.040 272.556 C 622.538 268.188, 622.825 264.492, 622.677 264.343 C 622.529 264.195, 620.940 264.967, 619.146 266.058 M 655.579 288.624 C 654.664 292.268, 654.110 295.444, 654.349 295.682 C 655.208 296.541, 673.265 293.476, 673.094 292.500 C 672.904 291.422, 671.631 291.405, 662.685 292.361 C 657.001 292.969, 656.887 292.933, 657.590 290.741 C 659.471 284.877, 659.776 282, 658.516 282 C 657.781 282, 656.540 284.799, 655.579 288.624 M 706.556 289.108 C 708.719 293.291, 707.761 296.275, 703.524 298.557 C 700.039 300.434, 698.947 302, 701.123 302 C 702.745 302, 714 295.682, 714 294.772 C 714 293.634, 706.914 286, 705.858 286 C 705.358 286, 705.672 287.398, 706.556 289.108 M 692.570 329.250 C 691.753 332.137, 690.792 335.738, 690.434 337.250 C 690.076 338.762, 689.589 340, 689.352 340 C 689.115 340, 686.582 338.425, 683.724 336.500 C 678.086 332.703, 676.991 332.336, 677.017 334.250 C 677.034 335.540, 691.093 345.240, 691.850 344.484 C 692.643 343.690, 696.766 325.504, 696.323 324.750 C 695.221 322.875, 693.940 324.411, 692.570 329.250 M 175.917 399.413 C 175.688 399.640, 175.651 402.790, 175.835 406.413 L 176.171 413 183.085 413 L 190 413 190 406 L 190 399 183.167 399 C 179.408 399, 176.146 399.186, 175.917 399.413 M 588.608 416.688 L 581.717 420.170 582.399 431.585 L 583.082 443 575.541 443 L 568 443 568 450.617 L 568 458.235 575.343 457.547 L 582.685 456.859 583.343 469.086 C 583.704 475.812, 584.002 486.981, 584.005 493.907 C 584.007 500.833, 584.301 511.563, 584.657 517.750 L 585.306 529 592.241 529 L 599.177 529 598.545 496.250 C 598.198 478.238, 597.687 462.038, 597.411 460.250 L 596.909 457 604.455 457 L 612 457 612 449.356 L 612 441.711 604.500 442.279 L 597 442.846 596.942 431.673 C 596.911 425.528, 596.573 418.859, 596.192 416.853 L 595.500 413.206 588.608 416.688 M 180.225 431.712 L 175.950 432.117 176.484 443.809 C 176.778 450.239, 177.497 475.573, 178.082 500.107 C 179.253 549.151, 179.268 548.978, 173.277 555.232 C 167.121 561.659, 155.551 562.733, 148.100 557.569 C 143.574 554.433, 142.533 554.708, 137 560.499 L 133.500 564.161 137.500 567.578 C 146.567 575.321, 162.161 577.454, 173 572.433 C 179.777 569.294, 186.310 563.111, 189.834 556.500 L 192.500 551.500 192.189 514.500 C 192.018 494.150, 191.568 467.150, 191.189 454.500 L 190.500 431.500 187.500 431.403 C 185.850 431.349, 182.576 431.488, 180.225 431.712 M 352.766 438.731 C 352.508 442.454, 352.453 445.791, 352.644 446.147 C 352.835 446.503, 359.051 447.119, 366.458 447.516 C 373.865 447.913, 381.269 448.521, 382.912 448.869 L 385.900 449.500 366.043 483.500 C 353.298 505.322, 346.599 517.717, 347.342 518.106 C 348.972 518.959, 402.939 522.394, 403.643 521.690 C 403.961 521.372, 404.453 518.226, 404.736 514.698 L 405.251 508.283 398.376 507.666 C 394.594 507.326, 386.639 506.749, 380.697 506.384 C 373.392 505.935, 370.042 505.360, 370.351 504.610 C 370.602 503.999, 379.595 488.432, 390.335 470.015 C 401.076 451.598, 409.778 436.445, 409.675 436.342 C 409.572 436.238, 398.915 435.443, 385.994 434.575 C 373.072 433.706, 360.415 432.763, 357.868 432.479 L 353.235 431.962 352.766 438.731 M 545.311 461.932 C 545.984 492.690, 545.772 494.741, 541.304 500.759 C 533.619 511.110, 516.369 510.259, 508.539 499.143 C 505.613 494.988, 505.570 494.731, 504.862 477.220 C 504.468 467.474, 504.113 453.988, 504.073 447.250 L 504 435 496.547 435 L 489.094 435 489.518 439.750 C 489.751 442.363, 490.171 455.822, 490.451 469.660 C 491.074 500.424, 491.743 503.040, 501.421 512.603 C 509.046 520.137, 515.001 522.511, 526 522.400 C 534.081 522.319, 540.477 520.162, 546.691 515.422 L 549.993 512.904 555.223 516.892 C 558.100 519.085, 560.608 520.725, 560.798 520.535 C 560.988 520.346, 560.661 502.710, 560.072 481.345 C 559.483 459.980, 559.001 440.363, 559.001 437.750 L 559 433 551.839 433 L 544.679 433 545.311 461.932 M 628.444 443.833 C 614.406 450.392, 610.624 469.128, 621.054 480.443 C 625.209 484.951, 628.099 486.433, 639.988 490.156 C 648.839 492.927, 652 496.438, 652 503.500 C 652 515.745, 637.691 521.253, 629.218 512.270 L 625.861 508.710 621.680 511.019 C 613.395 515.596, 613.619 515.174, 616.992 519.830 C 628.940 536.324, 654.322 534.046, 663.696 515.638 C 665.786 511.535, 666.310 509.090, 666.301 503.500 C 666.286 495.240, 664.639 490.819, 659.422 485.046 C 655.143 480.309, 651.956 478.441, 644.622 476.370 C 633.847 473.327, 631.248 472.014, 629.990 468.976 C 626.009 459.364, 637.842 451.688, 645.239 459.085 L 648.324 462.170 653.834 459.819 C 656.865 458.526, 659.502 456.994, 659.695 456.415 C 660.296 454.612, 655.667 448.713, 651.172 445.553 C 647.517 442.984, 645.799 442.488, 639.687 442.236 C 634.255 442.011, 631.510 442.401, 628.444 443.833 M 233.459 450.329 C 224.885 452.524, 218.765 456.107, 211.927 462.936 C 204.170 470.682, 200.267 478.061, 198.753 487.838 C 195.316 510.048, 209.568 532.167, 231.407 538.516 C 240.666 541.208, 253.646 540.294, 262.047 536.361 C 265.648 534.674, 270.239 531.851, 272.249 530.086 C 276.092 526.712, 277.925 526.795, 280.986 530.483 C 281.713 531.359, 284.105 533.499, 286.301 535.239 L 290.295 538.402 289.630 507.451 C 289.265 490.428, 288.683 470.277, 288.339 462.672 L 287.711 448.844 281.415 455.084 L 275.118 461.325 269.786 457.653 C 266.854 455.633, 262.050 453.067, 259.110 451.950 C 252.376 449.391, 240.143 448.618, 233.459 450.329 M 303.250 452.744 L 295 453.081 295 460.125 L 295 467.169 312.001 466.834 C 321.352 466.650, 329.002 466.576, 329.001 466.670 C 329 466.763, 321.575 482.880, 312.500 502.485 C 303.425 522.090, 296 538.326, 296 538.565 C 296 539.202, 315.034 539.096, 335.840 538.342 L 354 537.684 354 530.865 L 354 524.045 336.212 523.773 L 318.423 523.500 334.696 488.500 C 343.646 469.250, 350.976 453.163, 350.984 452.750 C 350.999 452.035, 320.712 452.031, 303.250 452.744 M 441.208 456.833 C 438.298 457.871, 433.941 460.140, 431.526 461.874 C 429.111 463.608, 426.917 464.674, 426.650 464.242 C 426.383 463.810, 424.044 461.934, 421.452 460.073 L 416.740 456.689 417.389 490.094 C 417.746 508.467, 418.309 528.112, 418.639 533.750 L 419.239 544 426.209 544 L 433.178 544 432.453 515.177 C 431.654 483.422, 431.883 481.545, 437.212 476.095 C 442.063 471.133, 445.749 469.571, 452.500 469.619 C 459.456 469.668, 463.401 471.414, 467.752 476.370 C 471.829 481.014, 472.999 487.123, 473.004 503.799 C 473.006 511.335, 473.301 523.237, 473.658 530.250 L 474.309 543 481.154 543 L 488 543 487.928 530.250 C 487.888 523.237, 487.516 509.175, 487.102 499 C 486.468 483.426, 486.016 479.754, 484.245 475.783 C 481.343 469.275, 473.820 461.548, 467.263 458.340 C 459.917 454.746, 448.852 454.106, 441.208 456.833 M 233.994 464.934 C 226.201 467.305, 217.513 475.471, 214.562 483.200 C 211.974 489.975, 212.672 502.802, 215.984 509.330 C 218.923 515.123, 224.579 520.451, 230.878 523.360 C 237.920 526.612, 250.706 526.334, 257.563 522.780 C 263.597 519.652, 269.424 513.484, 272.354 507.122 C 275.471 500.356, 275.328 488.302, 272.052 481.577 C 268.924 475.156, 263.100 469.420, 256.664 466.424 C 252.580 464.522, 249.932 464.035, 244 464.096 C 239.875 464.138, 235.372 464.515, 233.994 464.934" stroke="none" fill="black" fill-rule="evenodd"/>
</svg>