<svg xmlns="http://www.w3.org/2000/svg" width="850" height="850" viewBox="0 0 850 850" version="1.1">
	<path d="M 372.124 261.581 C 214.067 276.617, 84.508 289.159, 84.215 289.452 C 83.666 290.001, 132.617 613.950, 133.362 614.695 C 133.846 615.179, 711.303 593.031, 711.825 592.508 C 712.266 592.068, 754.876 387.402, 755.236 384 C 755.475 381.738, 754.964 381.364, 749.866 380.074 C 744.416 378.694, 743.982 378.739, 736.523 381.459 C 732.283 383.006, 722.609 387.340, 715.026 391.092 C 703.257 396.913, 700.503 398.737, 696.214 403.549 L 691.190 409.186 680.772 400.743 C 675.042 396.100, 668.136 391.445, 665.427 390.400 C 659.094 387.958, 647.791 387.880, 643.374 390.248 L 640.247 391.923 639.612 387.135 C 637.742 373.036, 621.143 350.122, 607.604 342.949 C 604.309 341.203, 603.166 340.069, 603.627 339 C 608.282 328.186, 609.748 310.391, 606.660 302.171 L 605.033 297.843 607.914 295.419 C 615.273 289.227, 621.903 273.283, 622.288 260.852 C 622.405 257.094, 622.685 254.015, 622.912 254.010 C 623.139 254.004, 625.706 254.751, 628.616 255.668 L 633.908 257.336 637.936 253.185 C 640.408 250.638, 646.123 246.919, 652.732 243.557 C 658.654 240.544, 664.625 237.172, 666 236.062 L 668.500 234.044 664 234.144 C 661.525 234.199, 530.181 246.545, 372.124 261.581 M 697.120 239.030 C 693.815 241.800, 689.097 243.318, 679.963 244.551 C 675.813 245.111, 675.307 244.943, 674.044 242.582 C 673.284 241.162, 672.247 240, 671.739 240 C 671.232 240, 668.719 241.872, 666.156 244.160 C 663.593 246.447, 656.355 251.060, 650.072 254.410 C 640.195 259.675, 638.499 260.949, 637.546 263.818 L 636.444 267.137 633.814 265.068 C 632.368 263.931, 630.918 263, 630.592 263 C 630.267 263, 630 264.982, 630 267.404 C 630 270.700, 628.856 273.977, 625.453 280.429 C 619.314 292.066, 616.968 301.631, 617.118 314.410 C 617.265 326.938, 617.930 330.157, 620.652 331.514 C 622.757 332.563, 622.744 332.610, 619.863 334.264 L 616.932 335.946 627.096 351.223 C 637.375 366.673, 640.674 371, 642.174 371 C 642.628 371, 643.900 370.100, 645 369 L 647 367 646.994 369.250 C 646.991 370.488, 646.551 374.172, 646.016 377.438 C 645.481 380.705, 645.199 383.532, 645.389 383.722 C 645.579 383.912, 648.010 382.269, 650.791 380.071 L 655.847 376.075 657.783 379.357 C 660.289 383.605, 664.430 385.476, 675.500 387.366 C 683.300 388.697, 684.867 389.310, 687.250 391.967 C 688.763 393.652, 690 395.898, 690 396.957 C 690 399.660, 691.729 400.428, 692.481 398.058 C 693.542 394.716, 699.024 390.921, 710.767 385.399 C 716.964 382.485, 724.727 378.439, 728.018 376.408 C 733.678 372.914, 734.324 372.749, 740 373.342 C 743.300 373.687, 746 373.696, 746 373.361 C 746 373.027, 743.950 369.376, 741.443 365.248 C 738.211 359.924, 737.412 357.959, 738.693 358.489 C 739.687 358.899, 743.124 360.052, 746.331 361.050 C 751.710 362.725, 752.107 362.735, 751.448 361.183 C 751.056 360.257, 750.517 355.872, 750.252 351.437 C 749.843 344.613, 750.090 342.743, 751.862 339.271 C 753.994 335.092, 757.703 331.824, 762.298 330.077 L 764.857 329.104 760.802 319.915 C 753.926 304.332, 754.439 295.581, 762.593 289.361 L 766.188 286.619 760.268 284.998 C 751.975 282.728, 747.512 279.688, 745.071 274.647 C 742.676 269.699, 742.434 263.618, 744.340 256.268 C 745.661 251.176, 745.651 251.117, 743.621 252.203 C 742.489 252.809, 739.793 254.586, 737.631 256.152 C 732.722 259.708, 731.674 259.702, 727.109 256.086 C 723.293 253.064, 719.777 251.326, 711.837 248.538 C 706.444 246.645, 702.301 242.897, 701.241 238.953 L 700.500 236.197 697.120 239.030 M 691.461 255.341 C 689.789 256.528, 687.341 258.277, 686.021 259.227 C 683.032 261.378, 683.863 262.475, 687.297 260.911 C 690.994 259.226, 694.172 260.449, 696.822 264.575 C 698.098 266.563, 699.333 268.001, 699.565 267.769 C 700.042 267.292, 696.072 254.856, 695.119 253.841 C 694.779 253.479, 693.132 254.154, 691.461 255.341 M 662.265 255.542 C 655.829 257.275, 648.343 260.999, 644.074 264.591 C 639.898 268.105, 631.146 281.110, 628.797 287.293 C 617.633 316.674, 646.038 362.709, 678.500 367.846 C 681.800 368.368, 684.658 368.646, 684.851 368.463 C 685.045 368.280, 683.360 363.419, 681.109 357.660 C 670.736 331.129, 667.720 303.321, 672.503 278.318 C 673.696 272.084, 677.050 259.639, 678.687 255.372 C 679.400 253.515, 669.409 253.617, 662.265 255.542 M 656.607 265.250 C 650.212 268.719, 640.640 277.714, 637.594 283.118 L 635.687 286.500 638.094 284.417 C 652.954 271.555, 663 262.659, 663 262.363 C 663 261.796, 662.849 261.864, 656.607 265.250 M 727 278.500 L 720.500 281.903 725.139 281.951 C 731.580 282.019, 733.897 284.159, 734.666 290.750 C 735.070 294.211, 735.742 296, 736.639 296 C 738.261 296, 738.283 295.414, 736.973 287 C 735.478 277.396, 734.915 274.995, 734.171 275.049 C 733.802 275.075, 730.575 276.628, 727 278.500 M 644.146 291.058 C 638.140 294.710, 635.422 305.001, 638.101 313.942 C 639.799 319.609, 642.062 322.072, 644.886 321.326 C 647.204 320.714, 647.257 320.477, 646.703 313.098 C 646.389 308.919, 646.541 301.925, 647.040 297.556 C 647.538 293.188, 647.825 289.492, 647.677 289.343 C 647.529 289.195, 645.940 289.967, 644.146 291.058 M 680.579 313.624 C 679.664 317.268, 679.110 320.444, 679.349 320.682 C 680.208 321.541, 698.265 318.476, 698.094 317.500 C 697.904 316.422, 696.631 316.405, 687.685 317.361 C 682.001 317.969, 681.887 317.933, 682.590 315.741 C 684.471 309.877, 684.776 307, 683.516 307 C 682.781 307, 681.540 309.799, 680.579 313.624 M 731.556 314.108 C 733.719 318.291, 732.761 321.275, 728.524 323.557 C 725.039 325.434, 723.947 327, 726.123 327 C 727.745 327, 739 320.682, 739 319.772 C 739 318.634, 731.914 311, 730.858 311 C 730.358 311, 730.672 312.398, 731.556 314.108 M 717.570 354.250 C 716.753 357.137, 715.792 360.738, 715.434 362.250 C 715.076 363.762, 714.589 365, 714.352 365 C 714.115 365, 711.582 363.425, 708.724 361.500 C 703.086 357.703, 701.991 357.336, 702.017 359.250 C 702.034 360.540, 716.093 370.240, 716.850 369.484 C 717.643 368.690, 721.766 350.504, 721.323 349.750 C 720.221 347.875, 718.940 349.411, 717.570 354.250 M 200.917 424.413 C 200.688 424.640, 200.651 427.790, 200.835 431.413 L 201.171 438 208.085 438 L 215 438 215 431 L 215 424 208.167 424 C 204.408 424, 201.146 424.186, 200.917 424.413 M 613.608 441.688 L 606.717 445.170 607.399 456.585 L 608.082 468 600.541 468 L 593 468 593 475.617 L 593 483.235 600.343 482.547 L 607.685 481.859 608.343 494.086 C 608.704 500.812, 609.002 511.981, 609.005 518.907 C 609.007 525.833, 609.301 536.563, 609.657 542.750 L 610.306 554 617.241 554 L 624.177 554 623.545 521.250 C 623.198 503.238, 622.687 487.038, 622.411 485.250 L 621.909 482 629.455 482 L 637 482 637 474.356 L 637 466.711 629.500 467.279 L 622 467.846 621.942 456.673 C 621.911 450.528, 621.573 443.859, 621.192 441.853 L 620.500 438.206 613.608 441.688 M 205.225 456.712 L 200.950 457.117 201.484 468.809 C 201.778 475.239, 202.497 500.573, 203.082 525.107 C 204.253 574.151, 204.268 573.978, 198.277 580.232 C 192.121 586.659, 180.551 587.733, 173.100 582.569 C 168.574 579.433, 167.533 579.708, 162 585.499 L 158.500 589.161 162.500 592.578 C 171.567 600.321, 187.161 602.454, 198 597.433 C 204.777 594.294, 211.310 588.111, 214.834 581.500 L 217.500 576.500 217.189 539.500 C 217.018 519.150, 216.568 492.150, 216.189 479.500 L 215.500 456.500 212.500 456.403 C 210.850 456.349, 207.576 456.488, 205.225 456.712 M 377.766 463.731 C 377.508 467.454, 377.453 470.791, 377.644 471.147 C 377.835 471.503, 384.051 472.119, 391.458 472.516 C 398.865 472.913, 406.269 473.521, 407.912 473.869 L 410.900 474.500 391.043 508.500 C 378.298 530.322, 371.599 542.717, 372.342 543.106 C 373.972 543.959, 427.939 547.394, 428.643 546.690 C 428.961 546.372, 429.453 543.226, 429.736 539.698 L 430.251 533.283 423.376 532.666 C 419.594 532.326, 411.639 531.749, 405.697 531.384 C 398.392 530.935, 395.042 530.360, 395.351 529.610 C 395.602 528.999, 404.595 513.432, 415.335 495.015 C 426.076 476.598, 434.778 461.445, 434.675 461.342 C 434.572 461.238, 423.915 460.443, 410.994 459.575 C 398.072 458.706, 385.415 457.763, 382.868 457.479 L 378.235 456.962 377.766 463.731 M 570.311 486.932 C 570.984 517.690, 570.772 519.741, 566.304 525.759 C 558.619 536.110, 541.369 535.259, 533.539 524.143 C 530.613 519.988, 530.570 519.731, 529.862 502.220 C 529.468 492.474, 529.113 478.988, 529.073 472.250 L 529 460 521.547 460 L 514.094 460 514.518 464.750 C 514.751 467.363, 515.171 480.822, 515.451 494.660 C 516.074 525.424, 516.743 528.040, 526.421 537.603 C 534.046 545.137, 540.001 547.511, 551 547.400 C 559.081 547.319, 565.477 545.162, 571.691 540.422 L 574.993 537.904 580.223 541.892 C 583.100 544.085, 585.608 545.725, 585.798 545.535 C 585.988 545.346, 585.661 527.710, 585.072 506.345 C 584.483 484.980, 584.001 465.363, 584.001 462.750 L 584 458 576.839 458 L 569.679 458 570.311 486.932 M 653.444 468.833 C 639.406 475.392, 635.624 494.128, 646.054 505.443 C 650.209 509.951, 653.099 511.433, 664.988 515.156 C 673.839 517.927, 677 521.438, 677 528.500 C 677 540.745, 662.691 546.253, 654.218 537.270 L 650.861 533.710 646.680 536.019 C 638.395 540.596, 638.619 540.174, 641.992 544.830 C 653.940 561.324, 679.322 559.046, 688.696 540.638 C 690.786 536.535, 691.310 534.090, 691.301 528.500 C 691.286 520.240, 689.639 515.819, 684.422 510.046 C 680.143 505.309, 676.956 503.441, 669.622 501.370 C 658.847 498.327, 656.248 497.014, 654.990 493.976 C 651.009 484.364, 662.842 476.688, 670.239 484.085 L 673.324 487.170 678.834 484.819 C 681.865 483.526, 684.502 481.994, 684.695 481.415 C 685.296 479.612, 680.667 473.713, 676.172 470.553 C 672.517 467.984, 670.799 467.488, 664.687 467.236 C 659.255 467.011, 656.510 467.401, 653.444 468.833 M 258.459 475.329 C 249.885 477.524, 243.765 481.107, 236.927 487.936 C 229.170 495.682, 225.267 503.061, 223.753 512.838 C 220.316 535.048, 234.568 557.167, 256.407 563.516 C 265.666 566.208, 278.646 565.294, 287.047 561.361 C 290.648 559.674, 295.239 556.851, 297.249 555.086 C 301.092 551.712, 302.925 551.795, 305.986 555.483 C 306.713 556.359, 309.105 558.499, 311.301 560.239 L 315.295 563.402 314.630 532.451 C 314.265 515.428, 313.683 495.277, 313.339 487.672 L 312.711 473.844 306.415 480.084 L 300.118 486.325 294.786 482.653 C 291.854 480.633, 287.050 478.067, 284.110 476.950 C 277.376 474.391, 265.143 473.618, 258.459 475.329 M 328.250 477.744 L 320 478.081 320 485.125 L 320 492.169 337.001 491.834 C 346.352 491.650, 354.002 491.576, 354.001 491.670 C 354 491.763, 346.575 507.880, 337.500 527.485 C 328.425 547.090, 321 563.326, 321 563.565 C 321 564.202, 340.034 564.096, 360.840 563.342 L 379 562.684 379 555.865 L 379 549.045 361.212 548.773 L 343.423 548.500 359.696 513.500 C 368.646 494.250, 375.976 478.163, 375.984 477.750 C 375.999 477.035, 345.712 477.031, 328.250 477.744 M 466.208 481.833 C 463.298 482.871, 458.941 485.140, 456.526 486.874 C 454.111 488.608, 451.917 489.674, 451.650 489.242 C 451.383 488.810, 449.044 486.934, 446.452 485.073 L 441.740 481.689 442.389 515.094 C 442.746 533.467, 443.309 553.112, 443.639 558.750 L 444.239 569 451.209 569 L 458.178 569 457.453 540.177 C 456.654 508.422, 456.883 506.545, 462.212 501.095 C 467.063 496.133, 470.749 494.571, 477.500 494.619 C 484.456 494.668, 488.401 496.414, 492.752 501.370 C 496.829 506.014, 497.999 512.123, 498.004 528.799 C 498.006 536.335, 498.301 548.237, 498.658 555.250 L 499.309 568 506.154 568 L 513 568 512.928 555.250 C 512.888 548.237, 512.516 534.175, 512.102 524 C 511.468 508.426, 511.016 504.754, 509.245 500.783 C 506.343 494.275, 498.820 486.548, 492.263 483.340 C 484.917 479.746, 473.852 479.106, 466.208 481.833 M 258.994 489.934 C 251.201 492.305, 242.513 500.471, 239.562 508.200 C 236.974 514.975, 237.672 527.802, 240.984 534.330 C 243.923 540.123, 249.579 545.451, 255.878 548.360 C 262.920 551.612, 275.706 551.334, 282.563 547.780 C 288.597 544.652, 294.424 538.484, 297.354 532.122 C 300.471 525.356, 300.328 513.302, 297.052 506.577 C 293.924 500.156, 288.100 494.420, 281.664 491.424 C 277.580 489.522, 274.932 489.035, 269 489.096 C 264.875 489.138, 260.372 489.515, 258.994 489.934" stroke="none" fill="black" fill-rule="evenodd"/>
</svg>